<svg version="1" xmlns="http://www.w3.org/2000/svg" width="537.333" height="537.333" viewBox="0 0 403.000000 403.000000"><path d="M54.9.2c-.7 3-.4 7.2.7 8.3 1.1 1 1.1 1.5.1 1.9-.8.3-.7.8.6 1.6 1.4.9 1.7 2 1.3 4.3-.5 2.5-.4 2.7.3 1.2.9-1.8 1-1.8 1-.2.1 1-.6 2.5-1.4 3.3-.8.9-1.5 1.3-1.5 1 0-.3-.9.3-2 1.4-1.4 1.4-2 3.2-1.8 5.3.1 1.8-.2 3.8-.6 4.5-.9 1.5-4.6 1.6-4.6.1 0-1.2-4.2-.2-5.1 1.3-.3.5-1.3.6-2.2.2-1-.3-1.7-.1-1.7.5s-.6 1.1-1.4 1.1c-1.5 0-9.6 7.5-9.6 8.9 0 .4-1.2 1.4-2.6 2.1-5.1 2.8-5.8 5.8-6 27-.3 26.3-.8 36.1-2.1 38.5-1.8 3.2-2.1 23.5-.5 23.5 1 0 1.2 1.3.7 5.7-.3 3.1-.8 6-1.1 6.4-.2.4-.5 2.7-.5 5.1-.1 2.3-.8 5.5-1.6 7-.7 1.5-1.2 3.3-1.1 3.9.3 1.4-3.8 3.9-6.4 3.9-1.2 0-2.1-1.3-2.8-4-1.5-5.4-2.5-5-2.7 1.1-.1 4.8.1 5.1 3 6.4 7 2.8 7.5 2.8 8.2-.3.3-1.7 2.5-5 4.8-7.6 4.3-4.6 6.1-5.8 5.1-3.2-.4 1.1.4 1.3 4 .9 6.7-.8 9.5.2 8.9 2.9-.3 1.3-.2 2 .2 1.6.4-.4 1.6-.3 2.7.3 1.8 1 1.8 1.2.4 2.8-1.8 1.9-1.1 3.1 2.7 4.4 2.1.8 2.1.5.2-5.7-.8-2.6-1.2-5.3-.9-5.8 1.4-2.2 6.5 5.3 8.8 12.9.4 1.3 1.2 2.3 1.7 2.3.6 0 .7-.4.4-1-.3-.6.1-.7 1-.3 1.3.5 1.4.7.3 1.4-1.1.7-1 1.1.2 1.9 1.3.9 1.3 1.1 0 2-2.1 1.4.3 1.3 3.5-.2 2-.9 2.5-1.7 2-3.2-1.5-5.3-1.7-8.6-.5-8.6.7 0 .2-.9-1.1-1.9-1.9-1.5-2.1-2.2-1.2-3.2.6-.6.9-1.7.7-2.4-.3-.6.2-1.7 1-2.4 1.2-1 1.3-1.8.6-3.2-1-1.7-.7-1.8 3.4-1.7 3.1.2 5.1-.3 6.5-1.6 1.1-1 3.3-1.8 4.8-1.8s3.3-.5 4-1c.7-.6 1.8-.6 3 0 1 .5 2.7.6 3.8.1 1.1-.4 2.3-.8 2.7-.8 1.1-.1-1.1 5.2-2.6 6.4-2.4 1.9-4 6-4 10.7-.1 2.5.2 4.4.7 4.1.4-.2.7 0 .7.6s1.2 1.4 2.7 1.7c3.2.8 12.6 9.9 16.9 16.4 3.3 4.8 7.1 13.8 8 18.4.5 3.1-2.3 13.6-4 14.8-.5.3-1.1 1.5-1.2 2.4-.2 1-1 2.4-1.8 3-.9.6-1.6 1.5-1.6 2 0 1.5-4.2 4.8-8.5 6.8-2.2 1-4.8 2.2-5.7 2.7-1 .5-2.5.9-3.3.9-.8 0-2.4.9-3.5 2-1.8 1.8-1.8 2-.2 2.8.9.5 3 1.2 4.5 1.6 4.1 1 7.4 9.6 3.7 9.6-1.4 0-1.7.8-1.6 4.5.1 4.7.5 5.2 2.3 3.4.7-.7 1 .6.9 4.4-.1 4.2.2 5.3 1.2 4.9 1-.3 1.3.1 1 1.4-.2 1-1 1.8-1.6 1.6-.7-.1-1.2.5-1.2 1.4 0 .8.4 1.3.9.9.5-.3 1.3 0 1.7.6.5.9 1.1.7 2.1-.6 1.3-1.9 1.5-1.7 1.7 2.5.1 1.5.6 2.4 1.4 2.2 1.5-.3.9 1.1-1.6 4-1.4 1.6-1.3 1.8.1 1.8 1.2 0 1.7.9 1.7 3 0 1.6-.4 3-1 3-.5 0-.9 1-.7 2.1.3 2.9-2 3.6-2.8.9-.5-1.6-1-1.9-1.8-1.1-.8.8-.5 1.7 1.1 3.4 1.2 1.3 2.2 3 2.2 3.8 0 .8.5 2 1.1 2.6.8.8.5 1.5-1 2.5-1.2.8-1.8 1.8-1.3 2.3.4.4-.3.5-1.5.2-2.4-.5-3.2.8-1 1.6.9.4.9.6 0 .6-.6.1-1.5-.4-1.8-.9-.8-1.3-3.5.6-3.5 2.4 0 .6.4.4 1-.4 1.5-2.4 2.2-.5.9 2.4-.8 1.8-1.8 2.5-2.9 2.1-1.1-.4-2.5.7-4.3 3.2-1.5 2.1-2.7 3.2-2.7 2.5 0-.6-.4-1.2-1-1.2-.5 0-1 .7-1 1.5s.5 1.5 1.1 1.5c.6 0 .3.7-.5 1.6-2 2-2 3 0 3.8.8.3 1.2 1.1.9 1.6-.5.8-1.1.7-2.1-.1-1.1-.9-1.4-.9-1.4 0 0 .7-.7 1.9-1.5 2.8-1.4 1.4-1.4 1.7 0 3.3.8.9 1.7 3.6 1.9 6 .3 2.6.1 3.8-.4 3-.7-1.1-1.1-1.1-2.4-.1-1 .8-1.3 1.8-.8 2.5.5.6.8 2.4.8 4.1-.1 2.3-.5 3-1.9 2.8-1.7-.1-1.7.1.3 2.2 1.9 2.1 2 2.3.4 2.9-1 .4-2.1.1-2.5-.6-.4-.7-1.1-.9-1.5-.5-1.1 1.1 2.7 3.6 5.5 3.7 1.7 0 2.2.4 1.7 1.6-1.1 2.9.6 9.6 2.5 10.1 1 .3 1.6.9 1.3 1.5-.3.5-.1 1.4.4 2.1.6.7 1.3 5.8 1.7 11.5l.8 10.2h87.2l.1-11.3c.2-12.1 2-20.8 6-29.3 1.3-2.8 2.4-5.5 2.4-5.9 0-.5 2.5-6.1 5.6-12.4C185 331 191 318.2 191 317.6c0-.3 2-4.7 4.5-9.9 2.5-5.3 4.5-10.2 4.5-11 0-.9.4-1.7.8-1.9 2-.8 11.9-22.6 16.2-35.8 4.2-12.5 4.9-14.1 5.5-11.5.4 1.7 1.7 6.4 3 10.5s3 10.4 3.9 13.9c.9 3.6 2.1 7 2.6 7.6.6.7 1 2.3.9 3.6-.1 3.8 1.2 9.2 2.7 11.3.8 1.1 1.4 3.2 1.4 4.7 0 1.4.9 5.2 2 8.5 1.1 3.2 2 7.6 2 9.7 0 2.3.4 3.6 1 3.2.5-.3.7 0 .4.9-.6 1.6 2.7 19.2 4.5 23.9.6 1.6 1.1 3.9 1.1 5.3 0 1.3.4 2.4.8 2.4 1.4 0 10 18.9 12.2 26.5 1.1 3.8 2 8.6 2 10.6s.3 5.7.6 8.3l.7 4.6h122.4l1.2-14.7c.7-8.2 1.3-15.6 1.3-16.6-.1-1 .6-4.8 1.4-8.5 4.6-19.8 6.3-31.9 5.8-40.7-.6-11.2-1.1-15.9-1.9-18.6-.5-1.9-.4-2.1.4-.9.7 1 1.1 1.1 1.1.2 0-.6.7-1.2 1.5-1.2s1.5-.4 1.5-.9c0-1-3.4-2.1-6.5-2.1-2.1 0-5.5 3.2-5.5 5.1 0 .5-.5.7-1.1.4-.6-.4-.9 0-.7 1 .2 1-.3 2-.9 2.2-.7.3-1.3-.3-1.3-1.3 0-.9-.3-1.4-.7-1-.4.4-.8 1.5-.8 2.4 0 1.2-1.1 1.9-3.5 2.3-1.9.4-2.8.7-2 .8 1.3.1 1.3.2 0 1.2-1.1.8-1.2 1.2-.3 1.6 1.8.7 1.6 2.3-.3 2.3-1.1 0-1.4.6-.9 2 .5 1.6.2 2-1.5 2-1.3 0-1.9.4-1.4 1.2.4.6-.1 1.7-1.1 2.5-1.1.7-1.3 1.3-.7 1.3.7 0 1.2.5 1.2 1.1 0 .6-1 .9-2.2.8-1.3-.1-3.4.3-4.8.9-3.1 1.3-5-.7-5.1-5.2 0-2.3-.2-2.7-.8-1.3-.6 1.7-.8 1.7-1.9-.5-.7-1.3-1.4-3.9-1.5-5.8-.1-1.9-.6-4-1-4.6-.4-.7-.7-3.9-.8-7.3-.1-3.4-.5-6.1-1-6.1-.4 0-.6-2-.3-4.6.2-2.5 0-4.3-.4-4-.4.2-.8-.4-.8-1.5 0-1 .6-1.9 1.3-1.9 1.7 0 1.6-2.5-.1-4-1.7-1.3-1-4 1-4 1.7 0 1.9-1.6.3-2.6-1.5-.9.9-2.3 4.1-2.5l2.5-.1-2.7-1c-2.6-.9-2.7-1.1-1.3-3.2.8-1.2 1.2-2.6.8-2.9-.3-.4 0-.7.8-.7 1-.1.8-.5-.5-1.5-1.1-.8-1.6-1.5-1.2-1.5.5 0 .3-.6-.3-1.3-1.6-2-.4-2.7 4.6-2.7 3.2 0 4.3-.4 4.3-1.5 0-.9-.7-1.5-1.6-1.3-1 .2-1.9-.3-2.2-1-.2-.9.3-1.2 1.4-1 1.3.2 1.9-.3 1.9-1.7 0-1.5.7-2 2.8-1.9 1.5.1 2.5-.1 2.2-.4-.2-.3.1-1.2.8-2 1-1.3.8-1.4-1.1-.8-1.3.5-2.2.3-2.2-.3s.5-1.1 1-1.1c.6 0 1-.6 1-1.3 0-.7.9-1.8 2-2.5s2-1.9 2-2.7c0-1.1 1.1-1.5 3.9-1.5 5.9 0 5.7-1.4-.4-4.2-6.9-3.1-12.8-10.9-9.2-12.1.9-.3.9-.8-.2-2.1s-1.1-2-.3-2.8c1.5-1.5 1.6-10.8.2-10.8-1.3 0-1.3-2.7.1-3.2.5-.2 1-1.7.9-3.3 0-1.7-.2-10-.3-18.5-.2-18.1-.2-18 11.2-27.1 8.1-6.5 9.2-7.4 6.6-6.1-2.2 1.2-6.4 4.2-11.8 8.5-2.5 2-4.2 2.7-5.7 2.2-2.4-.8-2.7-3-.4-3.9.8-.3 1.2-1.1.9-1.6-.4-.6 0-2.2.9-3.5 1.3-1.9 1.3-2.5.2-3.4-1.1-.9-1.9-.5-3.5 1.8-1.2 1.6-2.1 3.6-2.1 4.5 0 1.9-.5 2-3.1.6-1-.6-1.9-1.7-1.9-2.5 0-.7-.4-1.7-1-2-1.7-1-1.1 2.3.7 4.1 1.3 1.3 1.8 3.6 2 9.3.1 4.2-.1 6.5-.3 5.1-.3-1.4-1-3.7-1.6-5.3-.8-2-.7-3.1.1-4.1.9-1.1.8-1.7-.8-2.8-1.2-.8-1.9-1.7-1.6-2 .3-.3-3.5-4.6-8.5-9.5-6.8-6.8-9-9.7-9-11.7 0-2.1.5-2.6 2.6-2.6 2.6 0 10.7 4.8 13.4 8 1.3 1.6 2.2 1.7 7.8.8 5.4-.9 6.2-1.4 6.2-3.2 0-1.2.6-3.1 1.4-4.2 1.5-1.9 1.5-1.9 3 .1.8 1.1 1.6 2.6 1.6 3.3 0 1 .4 1 1.9 0 1.6-1 2.8-.8 6.5 1 2.4 1.3 4.7 2.8 5 3.5.5.9.7.9 1.2-.1.3-.6 1.3-1.2 2.3-1.2.9 0 2.7-1.3 3.9-3 2.4-3.2 2.9-4.8 1-3.3-1.4 1.1-9.7 3.3-12 3.3-.8-.1-.5-.7.7-1.7 2-1.5 2-1.5-.2-1-1.3.3-2.5.2-2.7-.2-.9-1.3 1.7-9.6 3.6-11.7 1.8-2 2.1-2 6.6-.6 2.6.8 5.9 2.4 7.4 3.4 3.5 2.4 3.8 2.3 3.8-1.2 0-1.7-.4-3-1-3-.5 0-1 .5-1 1 0 1.2-3.6.6-9.3-1.6-2-.8-4.1-1.3-4.5-1.2-.4 0-2.4-.7-4.6-1.6-4.6-2-5.4-1.5-3.2 1.8 2.2 3.5 2 4.9-1 8.6-3.8 4.4-6.3 3.7-8.2-2.3-1.5-4.8-4.8-6.9-3.7-2.4.4 1.5.1 2.8-.9 3.6-1.1.9-1.6 1-1.6.2 0-.6-.6-1.1-1.3-1.1-.8 0-3.3-1.4-5.5-3-2.3-1.7-4.6-3-5.1-3s-1.4-.7-2.1-1.5c-1.7-2.1-6.4-2-5.6 0 .8 2.1-2 3.1-3.9 1.5-.8-.7-1.5-2.1-1.5-3.1 0-1.7-.9-1.9-9.5-1.9-7.7 0-9.3.3-8.9 1.4.4 1.1 1.2 1.2 3.5.4 1.6-.5 3.7-.7 4.7-.3.9.4 3.4.8 5.4.7 3.8 0 6.1 2.4 3.7 3.9-1.4.8-7.5.1-10.1-1.3-1-.5-2.6-.5-3.5 0-1.8.8-8.6.7-11-.2-2-.8-2.6 1.3-.9 3 .9.8 1.6 2.2 1.6 2.9 0 .8.8 2 1.8 2.7 4.3 3.1 3.2 3.5-8.6 3.1-17.4-.5-18.1-.8-14.1-6.4 2.9-4.2 1.5-3.6-2.8 1.2-3.7 4.1-8 6.9-10.6 6.9-.8 0-2.5-.8-3.8-1.9-2.1-1.7-2.2-2.2-1.2-5.4l1-3.5-4.3 1.5c-2.4.8-4.4 2.1-4.4 2.8 0 1.2-5.2 2.7-10 3-.8.1-2.8.7-4.3 1.3-1.6.7-3.2 1.2-3.7 1.2s-1.8 1.7-2.9 3.8c-1.5 3-2.8 4-6.4 5-2.6.8-5.2 1.2-5.9.9-.7-.2-2.1 0-3 .5-1.2.6-1.8.5-1.8-.2 0-.6-.4-.9-.8-.6-1.1.6-.5-8.8.7-12.9.5-1.6 1.2-5.2 1.6-7.9.4-2.7 1.1-5.8 1.7-7 .6-1.2 1.4-2.7 1.8-3.5.3-.8 2.6-2.1 4.9-2.9 2.7-.9 4.6-2.3 5.3-3.8.6-1.3 1.7-2.4 2.4-2.4.8 0 1.1-.6.7-1.6-.5-1.4-.3-1.5 1.5-.5 1.4.7 2.3.8 2.7.1.3-.5.1-1-.4-1-.6 0-1.1-.5-1.1-1.1 0-.6.9-.8 2-.4 1.2.4 2 .2 2-.5 0-.6.4-.9.9-.6 1.1.7 3.3-1.8 2.4-2.7-.3-.4-.2-.7.4-.7.6 0 1.4.7 1.7 1.6.5 1.3 1.5 1.5 4.8 1 2.3-.4 4.8-1.2 5.5-1.8.9-.7 1.3-.7 1.3.1 0 .7 1.4.9 4.3.6 3.1-.4 3.7-.3 2.2.4-1.7.8-1.7 1-.3 1 .9.1 2-.4 2.4-1 .4-.7 2.2-.9 5.3-.4 4.2.6 7.6.8 12.4.5.9-.1 1.7-.6 1.7-1.1 0-.6.5-.7 1.2-.3.6.4 3.2.8 5.8.9 2.6.1 5.2.5 5.8.9.6.3 1.7-.1 2.6-.9.9-.9 1.7-1.1 2.1-.5.3.5 1.4 1 2.3.9 1.2 0 1.3-.2.4-.6-1-.4-.7-1 1-2.1 1.3-.9 2.7-1.6 3.1-1.4.5.1 1.6-.7 2.5-1.8 1.5-1.9 3-2.2 13.5-2.4 6.4-.2 11.7 0 11.7.4 0 .5 3 1.2 6.8 1.6 3.7.4 7.7 1.3 8.9 2.1 1.6 1 2.7 1.2 4 .4 1.2-.6 2.5-.6 3.4 0 1.9 1.2 6.6 1.1 7.4-.2.4-.6 1.3-.8 2.1-.5 1.1.4 1.2.1.4-1.3-.7-1.5-.6-2 .6-2.5 2-.8 11.9 7.4 14.7 12.1 2.6 4.5 3.7 4.1 3.7-1.3 0-5.8-4.1-11.8-7.6-11.1-1.7.3-2.7-.5-4.5-3.7-1.2-2.3-3.1-4.8-4.1-5.7-1-.9-1.8-2.1-1.8-2.6 0-.6-.6-1.6-1.4-2.2-.8-.7-1.2-2-.9-3.1.7-2.5-2.1-5.3-8-8-4.5-2.1-6.7-4.4-5.5-5.6.3-.2 1.7 0 3.1.5 3.1 1.2 6.7.4 6.7-1.5 0-.8.5-1.4 1-1.4.6 0 1-.4 1-.9 0-1-8.9-4.1-11.9-4.1-1.1 0-2.2-.9-2.6-2.1-.5-1.6-1-1.8-2.1-.8-1.1.9-1.4.7-1.5-1.2 0-1.3-.8.3-1.8 3.7-2 6.9-5.4 12.9-7.8 13.8-.9.4-3.6.4-6 0l-4.3-.6 2-2.5c4.1-5.3 8.1-20.7 4.8-18.7-.6.4-6.6.9-13.2 1-6.7.2-16.6.9-22.1 1.5-13.8 1.7-28.8 1.7-30.7.1-.9-.7-2-1.1-2.6-1-.5.2-2.2-1.1-3.6-2.7-2.2-2.6-3.3-6.9-2.7-10.8.2-1.6-3.5-7.3-4.6-7-1.5.5-3.5-3.1-2.7-5.1.3-.9 1.3-1.6 2.1-1.6s1.1.4.8 1c-.3.5-.1 1 .5 1s.8-1 .4-2.6c-.5-1.9-.4-2.5.5-2 1.7 1.1 1.3-2-.5-3.8C270.1.2 266.1 0 243.5 0h-26.4l4.6 11.2c2.6 6.2 5.9 13.1 7.4 15.4l2.8 4.1-3.2 9-3.2 9-3.7-.5c-3.6-.4-5.2.8-2.8 2.3 2.3 1.4 4.2 7.5 3.5 11.4-1.4 8.6-5.7 9.2-9.7 1.3-1.3-2.6-3.5-7-4.9-9.7-7.3-14.3-8.6-18.2-5.2-15.4 1.5 1.3 1.5 1.2.1-1.6-1.2-2.3-1.4-5.2-1.1-12 .5-8.7 1.5-12.5 3.2-12.5.5 0 1.2 1.2 1.5 2.6.4 1.5.9 2.4 1.2 2.2.2-.3 0-1.8-.6-3.3-1-2.5-.7-3.2 2.3-6.4C216.4-.6 217.7 0 195 0h-20.2l.6 3.1c.6 3.3-.6 5.2-4.1 6.3-1.2.4-2.5.1-3.3-.9-.7-.8-1.6-1.2-2.1-.9-.5.3-.9-.6-.9-2 0-6 3.5-5.6-52.6-5.6-57.2 0-52.6-.6-50.5 6.7.7 2.3.6 3.5-.4 4.3-1.7 1.4-2.5-.7-2.5-6.6C59 .7 58.7 0 57 0c-1.1 0-2 .1-2.1.2zm99.9 4.3c-.3.3-2.3.8-4.4 1.2-2.7.4-3.6.2-2.9-.5.6-.6 2.4-1.2 4-1.4 3.2-.4 4.2-.1 3.3.7zm111.5 5.6c-.5 1.9-.6 1.9-1.8.2-.6-1-1.5-2.6-1.8-3.6-.6-1.6-.5-1.6 1.7-.2 1.6 1.1 2.2 2.2 1.9 3.6zM68.6 17.4c-.3 1.2-.6 3.9-.7 6.1 0 2.5-.3 3.4-.7 2.3-.4-.9-.7 1.9-.8 6.2 0 4.4.3 7.7.8 7.4.4-.3.8-1.1.8-1.8s.9-2.1 2-3.1 1.7-2.3 1.3-2.9c-.4-.7-.1-.7.7.1 1 .9 1 1.9.1 4.3-.6 2-.7 3.8-.2 4.9 1.1 1.9.9 7.1-.1 6.4-1.1-.6-1 .4.5 3 .6 1.2 1.2 2.3 1.2 2.4 0 .1 1.7-.2 3.7-.6 3-.7 3.5-.6 3.1.7-.4 1-.2 1.3.8 1 2.2-.8 8.9 3.4 10.6 6.6 1.6 3.1 2.4 11.8 1.1 11-.5-.3-.8.4-.8 1.5s-.5 3.2-1.1 4.8c-2.6 6.2-.8 11.3 3.9 11.3 1.3 0 2.1.4 1.8.8-.3.5.8 2.3 2.4 4.2 1.5 1.8 2.6 3.9 2.3 4.7-.3.7.1 1.3.8 1.3 1.1 0 1.1.3-.1 1-1.2.7-1.2 1-.1 1 .7 0 1.1.6.8 1.4-.6 1.6 2.6 5 3.6 3.9.4-.3.7-.1.7.5 0 .7 1.7 1.2 4.5 1.2 2.5 0 4.5.4 4.5 1 0 .5 1.2 1 2.6 1 1.4 0 2.3.4 2 .9-.3.5 1.3 1.2 3.7 1.5 2.3.4 5.6 1.4 7.2 2.2 4.1 2.1 14.3 5.3 15 4.6.3-.3.5 0 .5.6 0 .7 1.1 1.2 2.5 1.2s2.5.4 2.5.8c0 .5 1.5 1.6 3.3 2.5l3.2 1.8-5.5-.6c-9.6-.9-35.5-1.8-34.9-1.2.3.4 2.4.9 4.7 1.2 6.8.9 9.4 2.2 8.7 4.5-.5 1.5-.2 2 1.4 2 2.5 0 3.6 1.7 2.2 3.4-.6.7-.8 1.6-.5 1.9.9.9-4.3 2-6.1 1.3-.9-.3-1.3-.2-1 .4.8 1.3-.1 1.3-2.6 0-1.1-.7-1.9-.7-1.9-.1 0 1.1-6.1.8-8-.4-.9-.5-1.1-.4-.6.3 1 1.7-1.6 1.5-4-.3-1-.8-2.6-1.5-3.4-1.5-2.7-.1-3.9-1.5-3.3-3.8.4-1.7 1.3-2.2 3.9-2.2 1.9 0 3.4-.5 3.4-1 0-.6-.5-1-1.1-1-1.7 0 .1-2.1 2.8-3.1 1.4-.5 2.4-1.1 2.2-1.3-.9-.8-17.8.7-17.3 1.5.3.5 1.6.9 3 .9 1.3 0 2.4.4 2.4.9 0 1.8-3.3 4.2-4.8 3.6-.8-.3-2.5.4-3.7 1.5l-2.2 2.1-.6-2.3c-.4-1.2-.3-2.5.2-2.8.4-.3 1.1-1.3 1.4-2.4.6-1.4.4-1.7-.9-1.2-.8.3-2 .6-2.5.6-.4 0-.6 1.3-.2 3 .5 2.7.3 3-1.8 3-2.4.1-2.4.1.3 1.6 1.5.8 3.1 2.6 3.4 3.9.3 1.4 1 2.2 1.5 1.9.5-.3.9-.1.9.4 0 .6-.7 1.2-1.5 1.6-.9.3-1.5 0-1.5-1s-.5-1.2-1.2-.7c-1.9 1.1-3.9 1.3-3.2.2.3-.5.1-.9-.5-.9-.5 0-1.3.5-1.6 1-.4.6-1.2.7-1.8.3-.7-.4-1.9-.6-2.9-.5-2.1.4-3.5-1.8-1.8-2.8.8-.5.9-1 .1-1.4-.7-.5-.4-1.4.9-2.8 1.3-1.5 1.7-2.5 1-3.3-.5-.7-.7-1.4-.4-1.8.8-.8-5.3.8-10.1 2.6-3.5 1.4-3.7 1.6-1.5 1.8 1.4.1 3.3.2 4.3.1 2.5-.2 2.1 1.1-.9 2.9-2.5 1.5-2.5 1.6-.7 3.4 1.7 1.8 1.7 1.8-1.4 1.2-2.5-.5-3.3-.3-3.8 1.2-.3.9-2.3 2.8-4.5 4-3.1 1.7-3.8 1.9-3.4.7.3-.9 1-1.3 1.5-1 2 1.2.7-1.8-1.6-4-1.4-1.3-2.5-2.8-2.5-3.5 0-1.5-1.4-1.4-5.7.4-4.3 1.8-6.2 1.9-5.9.2.5-2.8 1.8-5.7 2.6-5.7.4 0 1-.9 1.3-2 .4-1.7 0-2-3.1-2-2.1.1-4.7.6-5.8 1.3-4.5 2.6-9.9 8.2-12.1 12.6-3.5 7.1-2.7 2.6 1.2-7.4 2-5 4.9-12.6 6.5-17.1 1.5-4.4 4-9.8 5.4-11.9 1.5-2.2 2.4-4.6 2.1-5.6-.3-1 .3-4 1.4-6.6 2.2-5.2 7.3-24.1 9.1-33.8.6-3.3 2.6-12.1 4.5-19.5 4.3-17.2 5-22.2 3.6-24.9-1.8-3.2-.6-3.9 4.4-2.8 4 .9 4.6 1.4 4.1 3.1zm9.8-1.9c.3.9 0 1.5-.9 1.5-.8 0-1.5-.7-1.5-1.5s.4-1.5.9-1.5 1.1.7 1.5 1.5zM88 15c0 .5-1.6 1-3.5 1s-3.5-.5-3.5-1c0-.6 1.6-1 3.5-1s3.5.4 3.5 1zm-17.3 2.2c-.3.8-.6.5-.6-.6-.1-1.1.2-1.7.5-1.3.3.3.4 1.2.1 1.9zm0 7c-.2 1.3-.4.5-.4-1.7-.1-2.2.1-3.2.4-2.3.2 1 .2 2.8 0 4zm21 29c-.3.8-.6.5-.6-.6-.1-1.1.2-1.7.5-1.3.3.3.4 1.2.1 1.9zm4.5 2.3c.3 0 1 .4 1.5.8.4.5.4.8-.2.7-2.9-.6-3.8.1-1.9 1.5 1.6 1.3 1.7 1.6.4 2.5-1.2.7-1.8.3-2.8-2.1-1.3-3.2-.8-5.4 1.1-4.2.7.4 1.5.8 1.9.8zm110.3 4.2c1.9 2.7 3.5 5.8 3.5 7.1 0 1.3.4 2.1.9 1.8.9-.6 8.1 9.6 8.1 11.4 0 .5-.8 1-1.7 1.1-1.1 0-1.3.3-.5.6 1.3.5 1.5 22.8.3 37.3l-.6 7.5-2.2-6c-2.7-7.6-8.4-30.1-8.5-33.8-.1-1.5-.5-2.7-.9-2.7-1.5 0-5.9-16.4-5.8-21.6v-4.9l3.8 10.5c4.3 12 6.3 15.8 9.8 18.4 2.5 1.8 2.5 1.8 1.5-.1-.6-1.1-1.8-2.6-2.7-3.3-2.2-1.8-4.4-6.3-4.9-9.7-.3-1.6-1.5-6.3-2.9-10.6-1.4-4.2-2.1-7.7-1.6-7.7s2.4 2.1 4.4 4.7zm159.6-.1c.7.8 1.4 3.9 1.7 6.7.5 6.9-1.1 8.6-6 6.1-3.9-2-4.8-3.2-4-5.2.3-.9.1-1.3-.5-.9-1.4.9-2.3-1.5-1.6-4.3.4-1.5.8-1.8 1.3-1 .5.9 1 .6 1.5-.9.8-2.6 5.6-2.9 7.6-.5zm-177.7 57c.3.8.2 1.2-.4.9-.6-.3-1-1-1-1.6 0-1.4.7-1.1 1.4.7zm-10.9 2.4c2.1 2.4 3.7 2.6 2.9.5-.8-2.1-.3-1.9 7.1 2.1 6.7 3.7 8.5 5.7 8.5 9.4 0 1.7-.5 2-2.7 1.7-2.4-.3-3 .2-4.5 3.2-1.6 3.6-1.9 3.4-2.2-1.9-.1-.9-1.3-1.6-3.1-1.8-3.6-.4-5.8-2.1-5.1-3.9.3-.7 0-1.3-.7-1.3s-2.1-1-3.1-2.3c-1-1.2-2.6-3-3.5-4.1-1.5-1.8-1.5-1.8.7-1.2 1.6.6 2.2.3 2.2-.8 0-2.2 1.3-2 3.5.4zm19.5 2.5c0 .9 1.1 2 2.5 2.5s2.5 1.4 2.5 1.9 1.2 1.2 2.7 1.6c1.6.4 3.4 1.2 4.2 1.8 1.2 1 .6 1.3-3 1.7-2.9.3-4.4 1-4.4 1.9 0 2.7-2.4 2.2-3-.6-.4-1.5-.9-3.4-1.1-4.2-.3-.8.1-1.1 1-.8 1 .4 1.3.1.9-.8-.3-.8-.8-1.3-1.3-1-.4.2-1.2-.7-1.9-2.1-1.4-3.1-1.4-3.4-.1-3.4.6 0 1 .7 1 1.5zm-21 8c1.1 1.3 1 1.4-.4.9-.9-.3-1.6-1-1.6-1.5 0-1.3.6-1.1 2 .6zm154.4-.2c3.3.6 7.7 3.6 8.4 5.7.3.9-.2.8-1.9-.3-1.3-1-3-1.7-3.9-1.6-.9 0-.5.4.8.9 3.5 1.5 10.8 6.7 14.2 10.3 5.3 5.6 9 14.3 10.3 24.6 1 7.9.9 10.7-.6 19.4-1 5.6-2.2 10.3-2.7 10.5-.6.2-1 .8-1 1.3 0 .6.4.8.9.5.4-.3.6.6.3 1.9-.2 1.4-.8 2.8-1.3 3.1-.5.3-.9 1.4-.9 2.4 0 2.7-4.9 11.6-6.2 11.2-.6-.2-.8.4-.5 1.3.4.9.1 1.5-.9 1.5-.8 0-1.3.4-1 .8.7 1.1-4.2 5.4-5.3 4.7-.5-.2-1.4.2-2.1 1-1.1 1.3-1 1.4.6.9 1.6-.6 1.5-.3-.5 1.9-2 2.2-2.7 2.4-4.4 1.6-1-.6-1.7-.7-1.4-.1.9 1.4-3.8 5.4-5.9 5.1-1.1-.2-3.5 1.1-5.4 2.9-2.4 2.3-3.6 2.8-4.2 1.9-.4-.6-.8-.9-.9-.5-.1.5-.3 1.2-.4 1.8-.1.5-.3 1.5-.4 2.1 0 .6-.8.9-1.6.5-.8-.3-1.5-.1-1.5.3 0 .5.6 1.1 1.3 1.4.8.3.4 1.1-1.2 2.6-2.3 2-2.3 2.1-.3 2.1 2.9 0 5.3-1.1 4.6-2.1-.4-.7 3.4-2.9 5.2-2.9 1 0 .3 3.9-.8 4.3-1 .3-.8.9.5 2.4 1.6 1.8 1.6 2.2.2 3.3-.8.7-1.5 1.9-1.5 2.6 0 .8-.4 1.4-1 1.4-.5 0-1 .5-1 1.1 0 .6.7.8 1.6.5.9-.3 1.2-.2.9.5-.4.5-1.4.9-2.3.8-2.9-.2-3.8.1-2.4 1 1.1.6.8 1.4-1.2 3.7l-2.5 2.9-.1-2.7c0-1.4.6-2.9 1.3-3.1.6-.3.1-.6-1.4-.6-1.4-.1-3 .4-3.6 1-.8.8-1.7.8-3.2 0-1.8-1-2.1-.8-2.7 1.4-.5 2-1.2 2.5-3.6 2.5-2.6 0-2.9.2-1.8 1.5.7.8 1.9 1.5 2.8 1.5 1.2 0 1 .7-1 2.7-2.5 2.8-4.6 6.9-2.9 5.9 1.2-.8 2.2 2 1.4 4-.4 1 0 2 1 2.6 2.4 1.3 2.1 2.3-.8 2.4-3.6.3-8.6 2.5-7.9 3.5.3.5 0 .9-.6.9s-.8.6-.4 1.2c.4.7.4 1-.1.6-.9-.9-3.5.9-3.5 2.4 0 .6.7.8 1.5.4.8-.3 1.5-.1 1.5.4 0 .6 1 1.1 2.3 1.1 1.7.1 1.6.3-.8.8l-3 .8 2.8 1.3c4.7 2.3 2.8 4.9-3.1 4.1-.8-.1-1.6.7-1.9 1.7-.3 1.1-1.5 2.3-2.6 2.6-1.9.5-2 .8-.7 1.6s1.2 1-.3 1c-1 0-2-.7-2.4-1.6-.5-1.3-.8-1.2-2.4.5-2.2 2.3-2.4 3.7-.6 4.4.6.3.2.6-1 .6-1.3.1-2.3.7-2.4 1.3 0 1-.2 1-.6 0-.5-1.4-4.3-1.7-4.3-.2 0 .5.7 1.3 1.6 1.8 1.5.8 1.5 1 0 1.5-1 .4-1.9.1-2.3-.8-.3-.9-1.2-1.4-2.1-1.3-.9.2-1.8-.5-2-1.4-.2-1.3.3-1.8 2-1.8 4.1 0 5.8-.3 5.8-1.2 0-.8-4.5-1.2-8.2-.9-1.2.2-1.6-.3-1.2-1.3.5-1.2 0-1.6-1.9-1.6-1.3 0-3-.7-3.7-1.5-1-1.2-1-1.5.3-1.5 1 0 1.3-.6 1-2-.3-1.1-.9-1.8-1.3-1.5-1.6 1-3.9-.7-3.3-2.2.5-1.3.2-1.5-1.5-1.1-1.2.4-2 .2-1.7-.2.3-.5 0-2.1-.7-3.7-.6-1.5-1-3.3-.9-4 .1-.6-.7-1.4-1.8-1.8-2.3-.7-6.1-6.4-6.1-9.1 0-1.6-.2-1.7-1.1-.4-.8 1.1-.9.9-.4-1 .4-1.4.8-2.7.8-3 .1-.8-1.8-15-2.8-20.5-.2-1.7-.7-5.7-.9-9-.2-3.3-1-11.9-1.7-19-.6-7.2-1.2-25.6-1.3-41-.1-27.5-.1-28 1.9-27.7 3.4.5 7.7.4 8.3-.2.3-.3-.1-1.7-.8-3.1-.7-1.4-1.2-3.8-1.1-5.5.3-4.9.3-6.4-.1-8.5-.4-2.7 5.4-5.4 19.7-9.4 16.8-4.7 29.8-6.4 48.5-6.5 9.1-.1 15.2-.2 13.5-.4-1.6-.2-3.4-.8-4-1.4-1-1 7.3-.7 13.9.5zm-173.6 3.6c.3 1-.2 1.1-1.9.6-3.9-1.2-4.8-2.7-1.5-2.3 1.6.2 3.1.9 3.4 1.7zm14.7 1.1c0 .8.7 2 1.5 2.7 2.1 1.6 1 2.3-2 1-2.7-1.1-3.6-1.3-6.2-1.5-1-.1-1.6-1-1.5-2.1.1-1.6.8-1.9 4.2-1.8 2.8.1 4 .6 4 1.7zm35.5 3c.8.5 1.5 2.2 1.5 3.8 0 2.2-.4 2.8-1.5 2.4-1.1-.4-1 .1.4 1.6 1.8 2.1 1.8 2.2.1 2.2-1.4 0-1.5.3-.5 1.5.7.9 1.1 1.7.9 1.8-.2.1-1.1.8-2 1.5-1.4 1.1-2.2.8-4.7-1.3-3.7-3.1-3.4-7 .4-6.2 1.4.2 2.1 0 1.7-.6-.3-.6-.8-2.5-1-4.4-.3-2.6 0-3.3 1.4-3.3 1 0 2.5.5 3.3 1zm26.8 14.6c.6 7-.3 10.4-2.8 10.4s-3.5-1.7-2-3.5c.6-.8.9-1.8.6-2.3-.3-.5-.8-3.1-1.1-5.8-.4-2.7-1-5.1-1.5-5.4-.6-.3-.2-1.6.6-2.9l1.7-2.3 2 3.2c1.1 1.8 2.3 5.6 2.5 8.6zm-178.5-5.4c.3 1.1-.2 2-1.4 2.3-1.1.4-1.7 1-1.4 1.5.7 1.1-8.8 6-12.4 6.4-4.5.5-5.7-.7-4.2-4 .9-2 1.5-2.4 2.3-1.6.7.7 1.6 1.2 2.2 1.2.5 0 .6-.3.3-.6-.8-.9 1.1-4.4 2.3-4.4.6 0 1 .7 1 1.5 0 1.7.9 1.9 4.4.6 1.8-.7 2.3-1.5 1.9-3-.4-1.8-.1-2.1 2-1.9 1.5.1 2.8 1 3 2zm122.8-1.3c.4 0 .9 1 1.2 2.2.5 1.7.2 2-1.4 1.6-1-.3-1.9-.2-1.9.3 0 .4 1.7 1 3.8 1.3 4.3.7 29.6 13.7 29.4 15.2 0 .5.9 2 2 3.2 1.2 1.3 1.8 2.3 1.4 2.3-.4 0-.1.6.6 1.4.7.8 1.7 1.2 2.1.9.5-.3.7.1.5.8-.1.8.4 3.5 1.1 6 1.4 5 1 18.9-.7 24.6-.6 1.7-.8 3.4-.5 3.6.7.8-1.9 7.7-2.9 7.7-.4 0-.8.6-.8 1.4 0 .7-.7 1.9-1.6 2.7-.9.7-1.4 2.2-1.1 3.5.2 1.3-.1 2.5-.8 2.7-1.2.5-3.5 7-3.6 10.3 0 2.4-5.8 14.4-5.8 12.4-.1-.8-.8-.2-1.7 1.5-.8 1.6-1.3 3.7-1.1 4.7.3 1 0 1.5-.8 1.2-.8-.4-1.5 1-1.9 4-.4 2.5-1.2 4.8-1.7 5.2-.6.3-.8 1.3-.4 2.2.3.9.3 1.3-.1 1-.3-.4-1.3 0-2.1.8-2.1 2.1-2.9.9-1.3-2.1.7-1.4 1-2.8.7-3.2-.9-.9-3.6 2.7-3.7 4.8 0 2.1-2.9 3.3-4.5 1.9-1-.8-1.5-.8-2 0-.4.7-1.6 1-2.6.7-1.1-.3-1.7-.1-1.3.4.3.5 1.2.9 2 .9 2.2 0 1.7 1.7-.8 2.3-1.2.4-1.9.9-1.6 1.3.7.6-1.5 3.4-2.6 3.4-1.3 0-7.7 7-7.1 8 .3.5-.1 1-.9 1-.9 0-1.6.5-1.6 1 0 .6-1.1 1.5-2.5 2s-2.5 1.6-2.4 2.2c.4 3.5-.2 4.5-2.4 4.1-1.4-.3-2.9.3-4.2 1.7-1.5 1.7-1.6 2-.3 1.5 1.1-.4 2 .1 2.7 1.4 1.3 2.3 0 3.6-2.6 2.7-.9-.4-2.1.1-2.9 1.1-.8 1-1.4 1.3-1.3.8.1-.6-.1-2.9-.6-5.1-.6-3.4-1.1-4.1-2.6-3.7-1 .3-1.9 0-1.9-.6s.5-1.1 1-1.1c.6 0 .2-1-1-2.2-1.1-1.2-2-3-2-3.9 0-1-.4-2-.9-2.3-1.6-1-3.7-26.9-3-37.1.1-1.1.6-2.5 1.1-3.1.6-.8 0-1.9-1.8-3.3-2.9-2.3-4.4-2-4.4.8 0 1-.9 3-2 4.3-3.3 4.3-8.5 37.7-9.5 62.3-.3 8.2-1.2 17.9-1.9 21.5l-1.2 6.5-.8-15c-1.5-31.9-4.1-58.5-6.7-69.5-2.7-10.9-3.4-18.9-2-20.3.6-.6 2.7-1 4.7-.8 1.9.1 4.2-.3 5-1 1.3-1.1 1.8-1 2.5.3 1 1.7 6.9 2.2 6.9.6 0-.5-.7-2.2-1.5-3.8-1.9-3.7-5.2-16.2-6-22.6-.7-6.3 1.6-18 5-24.9 2.7-5.5 6.3-9.6 16.5-18.9l6.5-5.9-5.4.6c-9.9 1.2-20.1 9.7-20.1 16.9 0 2.6-.8 4.2-3.6 6.9-2 1.8-4.5 5-5.5 6.9-1.1 1.9-1.7 2.6-1.3 1.5.4-1.1.9-3.3 1.2-4.9.4-2.5.2-2.8-1.4-2.1-4 1.6-5.4 1.7-5.4.4 0-.7-1-2.3-2.1-3.5l-2.1-2.3 2.1-2.8c2-2.4 2.1-2.9.7-3.9-2.1-1.5-2-3.1.3-4.4 1.1-.5 2.5-1.6 3.3-2.3.7-.7 3-2.3 5.1-3.6 2-1.2 3.7-2.4 3.7-2.6 0-.2-1.1-1.5-2.4-2.8-2.4-2.4-2.5-2.4-5.3-.7-1.5.9-3.5 2.5-4.3 3.5-1.4 1.7-1.3 1.8.5 1 1.1-.4 3.6-1 5.5-1.3 3.1-.4 3.3-.3 2.1 1.2-.7.9-3.2 2.1-5.5 2.8-2.2.6-4.6 1.6-5.3 2.1-.7.5-2.1.6-3.2.2-1.6-.5-1.9-1.2-1.5-3.4.9-4.3-1.1-7.1-4.9-7.1-1.8 0-3.8.5-4.5 1.2-1.5 1.5-2.4.6-1.6-1.5.7-1.9 6.1-4 6.9-2.6.4.5 2 .9 3.7.9 3.5 0 6.2 2.8 4.7 4.7-2.1 2.5.8 2 3.8-.7l3.2-2.9-2.9-.6c-3.1-.7-5.1-2.5-2.8-2.5.7 0 2.9.4 4.9.9 3.3.7 3.5.6 3.2-1.3-.2-1.2.1-2.8.7-3.6.9-1.3 1.3-1.2 2.9.7 1.6 2 2 2 3.4.6 1.7-1.7 5.3-1 4.1.8-.5.8.1 1 2 .7 1.4-.3 2.9-.1 3.2.3.3.5 2.2.6 4.3.3 2.3-.4 4.1-.2 4.5.5.9 1.3-3.5 2.5-7 1.8-1.8-.3-2.4-.1-2 .9.6 1.4-.7 1.8-5.6 1.4-1.6-.1-2.8.4-2.8 1s.8 1 1.8.9c3.7-.3 6.3.1 5.7 1.1-1.1 1.8 2.2 1.1 10.1-2 8.9-3.6 12.1-3.6 11.6-.3-.4 2.8-.4 2.9 5.2-.3 5.5-3 13.6-5.4 18.9-5.4 4 0 4.7-1.3 2-4.2-1.5-1.7-1.4-1.8 1.8-1.4 1.9.2 3.7.4 4 .5zM49.5 147c.3.5.2 1-.4 1-.5 0-1.6.3-2.5.6-1.1.4-1.6.1-1.6-1 0-1.8 3.5-2.2 4.5-.6zm173.5-.2c0 .5-.7 1.7-1.5 2.8-1.4 1.9-1.4 1.9-1.5-.2 0-1.1.3-2.4.7-2.7.9-1 2.3-.9 2.3.1zM85.1 163.1c2.3 2.5 3.5 3 6 2.7 3.2-.5 4.8.7 3.1 2.4-.8.8-.8 1.8-.1 3.2.9 1.9.9 2-.4.3-.8-.9-1.9-1.7-2.4-1.7-.6 0-1.6-.6-2.3-1.4-.6-.8-1.7-1.3-2.4-1-.7.3-2.4 0-3.9-.5-2.1-.8-2.6-1.6-2.4-4.1.3-3.8 1.2-3.8 4.8.1zm10.1 11.4c.2-.2.4.4.5 1.5.1 1.6-.6 1.4-4.8-1.6-2.7-2-4.9-3.8-4.9-4 0-.2 2 .7 4.4 2.1 2.4 1.3 4.5 2.2 4.8 2zm133 5.7c.4 10.7-1 16.7-4.1 17.6-1.4.5-1.2-1.8.5-6.2.3-.9.2-1.6-.4-1.6-.5 0-1.3 1.2-1.7 2.7-1 4.2-2.3.9-2.3-5.6.1-4.6.3-5.2 1.1-3.4 1.6 3.7 2.7 2.7 2.7-2.6 0-5.1 1.6-11.1 3-11.1.5 0 1 4.6 1.2 10.2zM99 176c0 .5-.5 1-1.1 1-.5 0-.7-.5-.4-1 .3-.6.8-1 1.1-1 .2 0 .4.4.4 1zm1.9 5.6c1.4 1.7 2.1 4.1 2.1 6.7v4.1l-3.5-5.8c-1.9-3.2-3.5-6.2-3.5-6.7 0-1.8 2.9-.8 4.9 1.7zm9.1 18.9c.7.8 1.8 1.5 2.5 1.5 1.8 0 1.5 4.7-.3 6.2-1.2 1-1.4 1-.8 0 .4-.6.2-1.2-.3-1.2-.9 0-4.1-6.1-4.1-7.6 0-1 1.9-.3 3 1.1zm6 19.6c0 .5-.4.9-1 .9-.5 0-1-.7-1-1.6 0-.8.5-1.2 1-.9.6.3 1 1 1 1.6zm.5 2.9c.3.5.2 1-.4 1-.5 0-1.3-.5-1.6-1-.3-.6-.2-1 .4-1 .5 0 1.3.4 1.6 1zm-23.8 49.6c-.9 1-2.7-1.5-2.1-3.1.7-1.7.8-1.6 1.6.5.5 1.3.7 2.4.5 2.6zm209 8.1c-.8.7-3.7-.9-3.1-1.9.3-.5 1.2-.4 2 .3.8.6 1.3 1.4 1.1 1.6zm1.4 6.1c1.2.5 1.4 1.3.8 2.7-.6 1.7-.8 1.7-.8.2-.1-1-.9-1.7-2.2-1.7-1.1 0-1.7-.5-1.4-1 .7-1.1 1.3-1.2 3.6-.2zm89.4 18.2c.3.6-.1.7-.9.4-1.8-.7-2.1-1.4-.7-1.4.6 0 1.3.4 1.6 1zm-240.8 4.2c-.3.8-.6.5-.6-.6-.1-1.1.2-1.7.5-1.3.3.3.4 1.2.1 1.9zm135 3.4c-.3.3-1.2.4-1.9.1-.8-.3-.5-.6.6-.6 1.1-.1 1.7.2 1.3.5zM277 317c0 .5-.5 1-1.1 1-.5 0-.7-.5-.4-1 .3-.6.8-1 1.1-1 .2 0 .4.4.4 1zm81.7 13.2c-.3.8-.6.5-.6-.6-.1-1.1.2-1.7.5-1.3.3.3.4 1.2.1 1.9zm4.3 6.9c1.7 3 .7 3.3-1.8.4-1.6-1.9-1.8-2.5-.7-2.5.8 0 1.9.9 2.5 2.1zm-3.3 3.1c-.3.8-.6.5-.6-.6-.1-1.1.2-1.7.5-1.3.3.3.4 1.2.1 1.9z"/><path d="M82 54.8c0 1.2 1.9 2.6 2.6 1.9.2-.2-.2-1-1.1-1.7-.9-.8-1.5-.8-1.5-.2zM112.8 130.7c.7.3 1.6.2 1.9-.1.4-.3-.2-.6-1.3-.5-1.1 0-1.4.3-.6.6zM59 137c0 .5.5 1 1.1 1 .5 0 .7-.5.4-1-.3-.6-.8-1-1.1-1-.2 0-.4.4-.4 1zM61 141.4c0 .9.5 1.6 1 1.6.6 0 1-.4 1-.9 0-.6-.4-1.3-1-1.6-.5-.3-1 .1-1 .9zM324.8 131.7c.6.2 1.8.2 2.5 0 .6-.3.1-.5-1.3-.5-1.4 0-1.9.2-1.2.5zM292 290c0 .5.5 1 1.1 1 .5 0 .7-.5.4-1-.3-.6-.8-1-1.1-1-.2 0-.4.4-.4 1zM166.8 134.7c.7.3 1.6.2 1.9-.1.4-.3-.2-.6-1.3-.5-1.1 0-1.4.3-.6.6zM229 144.7c0 1.9 1.1 4.3 2.1 4.3 1.3 0 1.1-1.4-.6-3.6-.8-1-1.5-1.4-1.5-.7zM112.5 182.1c-.4.6-.5 1.3-.2 1.6.7.7 2.7-.6 2.7-1.8 0-1.2-1.7-1.2-2.5.2zM187 261c0 .5.5 1 1 1 .6 0 1-.5 1-1 0-.6-.4-1-1-1-.5 0-1 .4-1 1zM190.3 261.8c0 1.2.5 2.2.9 2.2 1.1 0 1-1.2-.2-3-.7-1.2-.9-1-.7.8zM311.1 2.5l-2.3 2.3 2.3.7c1.3.4 6.7 2.9 12 5.5 8.1 4.1 18.6 8.1 20.8 8 .3 0-.2-.7-1.2-1.5-1.3-.9-1.7-2-1.2-3.5.6-1.8 1.3-2.1 4.1-1.8 3 .4 3.3.2 2.8-1.7-.4-1.1-1.3-3.2-2-4.7-.8-1.5-1.4-3.4-1.4-4.3 0-1.3-2.2-1.5-15.7-1.4-15.2 0-15.9.1-18.2 2.4zM361 3.9c0 2.2.5 4.3 1 4.6 1.5.9.4 2.2-3.4 4-3.8 1.8-5.5 6.3-2.7 7.2.9.3 2.5.9 3.6 1.3 1.1.5 3.7 1.1 5.8 1.5 4.5.7 5.1-1 .7-2-2.6-.6-3-1-2.4-2.8.3-1.2 1.2-2.7 1.8-3.2 3.7-3 1.6-14.5-2.6-14.5-1.4 0-1.8.8-1.8 3.9zm3 9.5c0 .2-.7.7-1.6 1-.8.3-1.2.2-.9-.4.6-1 2.5-1.4 2.5-.6zM387.4.8c-.6.4-1.3 1.5-1.7 2.5-.6 1.5-.3 1.7 1.2 1.2 1.6-.5 2 0 2.6 2.7 1 5 3.8 14.2 4.5 14.8.4.3 1.2 1.4 1.9 2.5 1.1 1.9 1.2 1.8.5-.4-.5-1.9-.3-2.3 1-1.8.9.4 1.6.2 1.6-.2 0-.5.9-.7 2-.4 1.9.5 2 0 2-10.6V0h-7.2c-4 0-7.8.4-8.4.8zM1.3 11.7c-2 .8-1.5 2.1 1 2.5 2.1.3 2.2.8 2.7 10.8.6 12.6 1.9 11.8 2.7-1.6.4-6.7 1-9.7 2-10.1.7-.3 1.3-.9 1.3-1.4 0-.9-7.6-1.1-9.7-.2zM372.1 19.1c-1.4 4.1-1.5 3.9 1 3.9 1.8 0 1.9-.3.9-1.5-.6-.8-.9-2.3-.5-3.5 1-3.3-.2-2.3-1.4 1.1zM208.9 19.7c.5 1 2.4 3.1 4.2 4.8 3 2.8 2.9 2.6-.6-1.8-4.1-5-5.2-5.8-3.6-3zM353 42.9c0 1.1-.4 2.3-1 2.6-.5.3-1 1.3-1 2.1s.5 1.2 1 .9c.6-.3 1-.1 1 .6 0 .9.3.9 1.4 0 1.8-1.5 1.7-8.1-.1-8.1-.7 0-1.3.9-1.3 1.9zM389.7 54.7c-.8.7 1.1 3.3 2.3 3.3.5 0 .6-.9.3-2-.5-2-1.5-2.5-2.6-1.3zM383 56.7c0 1.2 4.9 3.2 5.5 2.4.2-.5-.7-1.3-2.1-2-2.9-1.3-3.4-1.4-3.4-.4zM396 123c.8.5 2 1 2.5 1 .6 0 .3-.5-.5-1s-1.9-1-2.5-1c-.5 0-.3.5.5 1zM400 124.4c0 .2.7.7 1.6 1 .8.3 1.2.2.9-.4-.6-1-2.5-1.4-2.5-.6zM398 129.4c0 .2.7.7 1.6 1 .8.3 1.2.2.9-.4-.6-1-2.5-1.4-2.5-.6zM399.5 133.1c.5.7.1 1.8-1.1 2.7-1.8 1.4-1.8 1.4.6.8 1.4-.3 2.8-.6 3.3-.6 1.5 0 .6-2-1.4-3.1-1.7-.9-2-.8-1.4.2zM371 137.5c-.7.9-1 1.9-.6 2.2.4.4 1 .3 1.4-.3.4-.6 1.6-1.6 2.7-2.2 2-1.1 2-1.1-.1-1.2-1.2 0-2.7.7-3.4 1.5zM355.1 142.6c0 1.1.3 1.4.6.6.3-.7.2-1.6-.1-1.9-.3-.4-.6.2-.5 1.3zM359 142.4c0 .2.7.6 1.5 1 .8.3 1.5.1 1.5-.4 0-.6-.7-1-1.5-1s-1.5.2-1.5.4zM359.6 144.7c-1.2 1.2-.5 2.3 1.4 2.3 1.1 0 2-.4 2-.9 0-1.1-2.6-2.2-3.4-1.4zM17 171c0 .5.4 1 .9 1 .6 0 1.3-.5 1.6-1 .3-.6-.1-1-.9-1-.9 0-1.6.4-1.6 1z"/><path d="M16.7 174.4c-1.4 1.3-3.2 3.7-4.1 5.5-.9 1.7-1.9 3.1-2.1 3.1-.3 0 .4-1.8 1.5-4.1 2-3.8 2-7.1 0-4-.4.8-1.4 1.1-2.2.8-.8-.3-1.5.1-1.5.9 0 .7.4 1.1.8.8.4-.2 1 0 1.4.6.3.5-.3 1-1.4 1-1.5 0-2.1.9-2.5 3.7-2.3 13.6-3.4 29.9-2.7 38.8.1 1.6-.3 6.6-.8 11-.6 4.4-.8 9.3-.5 11 .7 3 .7 3 1.5.6.8-1.9 1.2-2.1 2.4-1.1 1.3 1 1.5.9 1.5-.9 0-1.1.5-2.1 1-2.1.6 0 .8-1 .6-2.3-.3-1.2-.8-7-1.1-12.9-.4-6-1-10.6-1.4-10.4-.8.5 1.4-21.2 2.5-24.7 1.7-5.6 4.7-10.9 8.1-14.2 4-3.9 3.1-4.9-1-1.1zM32.4 174.6c4.5 7.1 9.3 10 8 4.9-.6-2.4.9-3.6 1.9-1.5.3.6.4.5.3-.1-.1-.7-1.2-1.6-2.5-2-1.5-.6-2-.5-1.5.2.3.6-1.3-.2-3.7-1.7l-4.3-2.7 1.8 2.9zM67.1 182.8c-1.7 2.7-3.1 5.4-3.1 6.1 0 2.4-5.1 11.1-6.5 11.1-.8 0-1.5.8-1.5 1.7 0 1-.9 3.1-2 4.8-2.1 3.2-2.6 6.5-1 6.5.6 0 1-.8 1.1-1.8 0-1 .3-1.2.6-.4.2.6.9 1 1.4.6 1.2-.7 3.9-7.2 3.9-9.4 0-1.7 6-13.9 10.2-20.8 3.2-5.2.3-3.7-3.1 1.6zM42.1 181.6c0 1.1.3 1.4.6.6.3-.7.2-1.6-.1-1.9-.3-.4-.6.2-.5 1.3zM58.2 182.2c-2 1.2-3.1 2.6-2.8 3.4.4.9-.2 1.4-1.5 1.4s-1.8-.4-1.3-1.3c.5-.8.2-.7-.9.2-2.2 1.7-2.2 1.7 3.1 2.4 3.6.4 4.2.3 3.8-.9-.3-.8-.2-1.2.3-.9 1.1.6 4.1-3.3 4.1-5.2 0-1.7-.8-1.5-4.8.9zM34 181.4c0 .2.7.7 1.6 1 .8.3 1.2.2.9-.4-.6-1-2.5-1.4-2.5-.6zM.2 190.7c.2 5.3.6 6.8 1.8 6.8 1.1 0 1.4-1 1.3-3.5-.2-1.9-.3-5-.2-6.8 0-2.2-.5-3.2-1.6-3.2-1.3 0-1.5 1.1-1.3 6.7zM38 185.1c0 .5.5.7 1 .4.6-.3 1-.8 1-1.1 0-.2-.4-.4-1-.4-.5 0-1 .5-1 1.1zM27 186.5c0 .5.5 1.7 1 2.5s1 1 1 .5c0-.6-.5-1.7-1-2.5s-1-1.1-1-.5zM50 199.9c-.8.6-1.8.7-2.2.5-.4-.3-.5.2-.2 1.1.6 1.4.8 1.4 2.5-.1 2.7-2.4 2.6-3.1-.1-1.5zM41 205.4c0 .2.7.7 1.6 1 .8.3 1.2.2.9-.4-.6-1-2.5-1.4-2.5-.6zM366.5 251c.3.5 1 1 1.6 1 .5 0 .9-.5.9-1 0-.6-.7-1-1.6-1-.8 0-1.2.4-.9 1zM77.7 315.7c-1 1-.8 4.3.2 4.3.9 0 2.1-2.4 2.1-4.1 0-1.1-1.4-1.2-2.3-.2zM29 342c-1.3.8-1.3 1 .2 1 .9 0 2-.5 2.3-1 .8-1.3-.5-1.3-2.5 0zM17 343.2c-1.9.5-6 1.4-9 1.9-5.7 1-6.7 1.5-5.7 2.5.4.4 3.3.1 6.4-.6 3.2-.7 8.5-1.8 11.8-2.4 4.2-.8 5.4-1.4 4.2-1.9-2.2-.8-3.1-.8-7.7.5zM1 344c0 1.3 1.1 1.3 3 0 1.2-.8 1.1-1-.7-1-1.3 0-2.3.4-2.3 1zM20.3 346.7c-2.6 1-1.2 1.9 2.2 1.5 1.9-.2 3.5-.8 3.5-1.3 0-.9-3.6-1.1-5.7-.2zM65.5 353c-.3.6.1.7.9.4 1.8-.7 2.1-1.4.7-1.4-.6 0-1.3.4-1.6 1zM177.5 354.6c-.8 1.3-1.1 2.5-.7 2.7 1.4.7 37.7-2.3 39.7-3.3 1.5-.8.8-.9-3.2-.7-2.9.2-5.3 0-5.3-.5s-6.5-.8-14.5-.7c-13.9.2-14.5.3-16 2.5zM55 385c.6 1.1 1.5 2 2.1 2 .6 0 .6-.7-.1-2-.6-1.1-1.5-2-2.1-2-.6 0-.6.7.1 2z"/></svg>